<?xml version="1.0" encoding="utf-8"?>
<!-- Generator: Adobe Illustrator 16.0.0, SVG Export Plug-In . SVG Version: 6.00 Build 0)  -->
<!DOCTYPE svg PUBLIC "-//W3C//DTD SVG 1.1//EN" "http://www.w3.org/Graphics/SVG/1.1/DTD/svg11.dtd">
<svg version="1.1" id="Layer_1" xmlns="http://www.w3.org/2000/svg" xmlns:xlink="http://www.w3.org/1999/xlink" x="0px" y="0px"
	 width="68.03px" height="68.03px" viewBox="0 0 68.03 68.03" enable-background="new 0 0 68.03 68.03" xml:space="preserve">
<g>
	<path fill="#1CBBDF" d="M42.93,64.659c0,1.771-1.449,3.217-3.219,3.217h-12.25c-1.77,0-3.217-1.446-3.217-3.217V21.725
		c0-1.77,1.447-3.218,3.217-3.218h12.25c1.77,0,3.219,1.448,3.219,3.218V64.659z"/>
	<path fill="#FFD95F" d="M19.408,64.659c0,1.771-1.449,3.217-3.219,3.217H3.94c-1.77,0-3.217-1.446-3.217-3.217V34.763
		c0-1.769,1.447-3.218,3.217-3.218h12.25c1.77,0,3.219,1.449,3.219,3.218V64.659z"/>
	<path fill="#595959" d="M67.008,64.659c0,1.771-1.445,3.217-3.215,3.217H51.545c-1.771,0-3.221-1.446-3.221-3.217V3.372
		c0-1.769,1.449-3.218,3.221-3.218h12.248c1.77,0,3.215,1.449,3.215,3.218V64.659z"/>
</g>
</svg>
