<?xml version="1.0" encoding="UTF-8" standalone="no"?>
<!-- Created with Inkscape (http://www.inkscape.org/) -->

<svg
   xmlns:dc="http://purl.org/dc/elements/1.1/"
   xmlns:cc="http://creativecommons.org/ns#"
   xmlns:rdf="http://www.w3.org/1999/02/22-rdf-syntax-ns#"
   xmlns:svg="http://www.w3.org/2000/svg"
   xmlns="http://www.w3.org/2000/svg"
   xmlns:xlink="http://www.w3.org/1999/xlink"
   xmlns:sodipodi="http://sodipodi.sourceforge.net/DTD/sodipodi-0.dtd"
   xmlns:inkscape="http://www.inkscape.org/namespaces/inkscape"
   width="128"
   height="128"
   id="svg2"
   version="1.1"
   inkscape:version="0.48.0 r9654"
   sodipodi:docname="New document 1.2010_09_09_17_54_06.0.svg">
  <defs
     id="defs4">
    <linearGradient
       inkscape:collect="always"
       id="linearGradient3860">
      <stop
         style="stop-color:#aa0000;stop-opacity:1;"
         offset="0"
         id="stop3862" />
      <stop
         id="stop3868"
         offset="0.52293926"
         style="stop-color:#ff0000;stop-opacity:1" />
      <stop
         style="stop-color:#ffaaaa;stop-opacity:1"
         offset="1"
         id="stop3864" />
    </linearGradient>
    <linearGradient
       inkscape:collect="always"
       id="linearGradient3792">
      <stop
         style="stop-color:#fff6d5;stop-opacity:1;"
         offset="0"
         id="stop3794" />
      <stop
         id="stop3800"
         offset="0.53957373"
         style="stop-color:#ffcc00;stop-opacity:1" />
      <stop
         style="stop-color:#806600;stop-opacity:1"
         offset="1"
         id="stop3796" />
    </linearGradient>
    <radialGradient
       inkscape:collect="always"
       xlink:href="#linearGradient3792"
       id="radialGradient3798"
       cx="54.995113"
       cy="68.019478"
       fx="54.995113"
       fy="68.019478"
       r="61.34375"
       gradientTransform="matrix(1.1961288,0,0,1.2081946,-15.627426,875.38323)"
       gradientUnits="userSpaceOnUse" />
    <radialGradient
       inkscape:collect="always"
       xlink:href="#linearGradient3792"
       id="radialGradient3013"
       gradientUnits="userSpaceOnUse"
       gradientTransform="matrix(1.4974445,0,0,1.5125498,-20.561948,-29.166324)"
       cx="92.058258"
       cy="111.15855"
       fx="92.058258"
       fy="111.15855"
       r="61.34375" />
    <filter
       inkscape:collect="always"
       id="filter3827"
       x="-0.12594035"
       width="1.2518806"
       y="-0.13867225"
       height="1.2773445"
       color-interpolation-filters="sRGB">
      <feGaussianBlur
         inkscape:collect="always"
         stdDeviation="5.6082813"
         id="feGaussianBlur3829" />
    </filter>
    <radialGradient
       inkscape:collect="always"
       xlink:href="#linearGradient3792"
       id="radialGradient3833"
       gradientUnits="userSpaceOnUse"
       gradientTransform="matrix(1.4974445,0,0,1.5125498,-24.061948,-30.885074)"
       cx="54.995113"
       cy="68.019478"
       fx="54.995113"
       fy="68.019478"
       r="61.34375" />
    <radialGradient
       inkscape:collect="always"
       xlink:href="#linearGradient3792"
       id="radialGradient3837"
       gradientUnits="userSpaceOnUse"
       gradientTransform="matrix(1.4974445,0,0,1.5125498,-24.061948,-30.885074)"
       cx="54.995113"
       cy="68.019478"
       fx="54.995113"
       fy="68.019478"
       r="61.34375" />
    <radialGradient
       inkscape:collect="always"
       xlink:href="#linearGradient3792"
       id="radialGradient3841"
       gradientUnits="userSpaceOnUse"
       gradientTransform="matrix(1.4974445,0,0,1.5125498,-24.061948,-30.885074)"
       cx="102.57618"
       cy="111.6544"
       fx="102.57618"
       fy="111.6544"
       r="61.34375" />
    <radialGradient
       inkscape:collect="always"
       xlink:href="#linearGradient3792"
       id="radialGradient3845"
       gradientUnits="userSpaceOnUse"
       gradientTransform="matrix(2.398759,0,0,2.4691188,-116.51535,-137.69022)"
       cx="102.57618"
       cy="111.6544"
       fx="102.57618"
       fy="111.6544"
       r="61.34375" />
    <radialGradient
       inkscape:collect="always"
       xlink:href="#linearGradient3792"
       id="radialGradient3854"
       cx="58.25"
       cy="68.862183"
       fx="58.25"
       fy="68.862183"
       r="45"
       gradientUnits="userSpaceOnUse"
       gradientTransform="matrix(2.8055556,-0.65555556,0.65555556,2.8055556,-150.3166,-86.148385)" />
    <linearGradient
       inkscape:collect="always"
       xlink:href="#linearGradient3860"
       id="linearGradient3866"
       x1="87.150909"
       y1="174.66589"
       x2="112.42998"
       y2="167.77159"
       gradientUnits="userSpaceOnUse" />
    <linearGradient
       inkscape:collect="always"
       xlink:href="#linearGradient3860"
       id="linearGradient3876"
       x1="75.501785"
       y1="155.2816"
       x2="53.337048"
       y2="151.21573"
       gradientUnits="userSpaceOnUse" />
    <linearGradient
       inkscape:collect="always"
       xlink:href="#linearGradient3860"
       id="linearGradient3903"
       gradientUnits="userSpaceOnUse"
       x1="75.501785"
       y1="155.2816"
       x2="53.337048"
       y2="151.21573" />
    <linearGradient
       inkscape:collect="always"
       xlink:href="#linearGradient3860"
       id="linearGradient3905"
       gradientUnits="userSpaceOnUse"
       x1="87.150909"
       y1="174.66589"
       x2="112.42998"
       y2="167.77159" />
    <linearGradient
       inkscape:collect="always"
       xlink:href="#linearGradient3860"
       id="linearGradient3908"
       gradientUnits="userSpaceOnUse"
       x1="87.150909"
       y1="174.66589"
       x2="112.42998"
       y2="167.77159"
       gradientTransform="matrix(0.87138239,0,0,0.70645514,-4.2816112,906.70079)" />
    <linearGradient
       inkscape:collect="always"
       xlink:href="#linearGradient3860"
       id="linearGradient3911"
       gradientUnits="userSpaceOnUse"
       x1="75.501785"
       y1="155.2816"
       x2="53.337048"
       y2="151.21573"
       gradientTransform="matrix(0.87138239,0,0,0.70645514,-4.2816112,906.70079)" />
    <radialGradient
       inkscape:collect="always"
       xlink:href="#linearGradient3792"
       id="radialGradient3913"
       gradientUnits="userSpaceOnUse"
       gradientTransform="matrix(1.6946156,0,0,1.7443217,-73.338453,809.42883)"
       cx="102.57618"
       cy="111.6544"
       fx="102.57618"
       fy="111.6544"
       r="61.34375" />
  </defs>
  <sodipodi:namedview
     id="base"
     pagecolor="#ffffff"
     bordercolor="#666666"
     borderopacity="1.0"
     inkscape:pageopacity="0.0"
     inkscape:pageshadow="2"
     inkscape:zoom="1"
     inkscape:cx="140.78783"
     inkscape:cy="28.563782"
     inkscape:document-units="px"
     inkscape:current-layer="layer1"
     showgrid="false"
     inkscape:window-width="1280"
     inkscape:window-height="965"
     inkscape:window-x="-4"
     inkscape:window-y="-4"
     inkscape:window-maximized="1">
    <inkscape:grid
       type="xygrid"
       id="grid2999"
       empspacing="5"
       visible="true"
       enabled="true"
       snapvisiblegridlinesonly="true" />
  </sodipodi:namedview>
  <metadata
     id="metadata7">
    <rdf:RDF>
      <cc:Work
         rdf:about="">
        <dc:format>image/svg+xml</dc:format>
        <dc:type
           rdf:resource="http://purl.org/dc/dcmitype/StillImage" />
      </cc:Work>
    </rdf:RDF>
  </metadata>
  <g
     inkscape:label="Layer 1"
     inkscape:groupmode="layer"
     id="layer1"
     transform="translate(0,-924.36217)">
    <path
       style="fill:url(#linearGradient3911);fill-opacity:1;stroke:none"
       d="m 50.615479,987.6566 -19.170412,55.405 15.684883,-6.3729 11.545817,7.6735 5.881831,-57.22583 -6.099677,-4.94224 z"
       id="path3856"
       inkscape:connector-curvature="0" />
    <path
       inkscape:connector-curvature="0"
       id="path3858"
       d="m 80.896021,987.6566 19.170409,55.405 -15.68488,-6.3729 -11.545819,7.6735 -5.881832,-57.22583 6.099677,-4.94224 z"
       style="fill:url(#linearGradient3908);fill-opacity:1;stroke:none" />
    <path
       style="fill:url(#radialGradient3798);fill-opacity:1;fill-rule:evenodd;stroke:none"
       d="m 66.241436,928.84375 -4.636113,8.98522 -6.534709,-7.72684 -2.163519,9.91244 -8.322925,-5.7841 0.485687,10.11114 -9.537143,-3.42189 3.068664,9.64753 -10.066986,-0.83892 4.569882,7.10871 -8.389155,1.05968 7.130782,7.19701 -9.360531,3.84134 8.742382,5.09974 -8.058004,6.13732 9.757912,2.67129 -6.203559,8.01384 10.133215,0.0442 -3.907579,9.33844 8.14631,-2.14147 -1.567446,8.27877 9.051456,-4.5478 0.750608,10.0891 7.55024,-6.7334 3.355662,9.5592 5.541257,-8.4554 5.717871,8.3671 3.179049,-9.6254 7.660623,6.6008 0.485687,-8.3891 7.395703,4.04 -1.545371,-10.02276 9.846216,2.4063 -4.084192,-9.27214 10.13322,-0.22077 -6.336023,-7.90347 9.713753,-2.82582 -8.146302,-5.98279 8.654072,-5.25426 -7.85931,-3.06866 6.13733,-5.78411 -10.000756,-1.63368 5.320486,-8.60992 -10.066986,0.99345 2.914133,-9.69168 -9.470919,3.57643 0.309074,-10.11114 -8.212541,5.91656 -2.318056,-9.84622 -5.519181,7.77101 z"
       id="path3001"
       inkscape:connector-curvature="0"
       sodipodi:nodetypes="ccccccccccccccccccccccccccccccccccccccccccccccccccc" />
    <path
       style="fill:url(#radialGradient3913);fill-opacity:1;fill-rule:evenodd;stroke:none"
       d="m 66.108975,931.49296 -3.532276,6.84378 a 1.0937826,1.0937826 0 0 1 -1.810291,0.19869 l -5.099723,-6.02695 -1.699908,7.74894 a 1.0937826,1.0937826 0 0 1 -1.677831,0.6623 l -6.512633,-4.52573 0.375305,7.90347 a 1.0937826,1.0937826 0 0 1 -1.457065,1.08176 l -7.439855,-2.67128 2.384286,7.52815 a 1.0937826,1.0937826 0 0 1 -1.125913,1.41291 l -7.859314,-0.66229 3.377739,5.25425 a 1.0937826,1.0937826 0 0 1 -0.794762,1.67783 l -6.181482,0.77268 5.563333,5.62957 a 1.0937826,1.0937826 0 0 1 -0.353227,1.78822 l -7.307395,3.00244 6.821707,3.9738 a 1.0937826,1.0937826 0 0 1 0.110384,1.81029 l -6.291866,4.79065 7.616469,2.09729 a 1.0937826,1.0937826 0 0 1 0.573995,1.72199 l -4.834803,6.24771 7.903467,0.0442 a 1.0937826,1.0937826 0 0 1 1.01553,1.52329 l -3.046588,7.28528 5.982793,-1.56745 a 1.0937826,1.0937826 0 0 1 1.368756,1.25845 l -1.147989,6.1152 7.064551,-3.5544 a 1.0937826,1.0937826 0 0 1 1.567447,0.8831 l 0.596072,7.8814 5.894485,-5.2543 a 1.0937826,1.0937826 0 0 1 1.766137,0.4636 l 2.627131,7.462 4.327037,-6.601 a 1.0937826,1.0937826 0 0 1 1.810291,-0.023 l 4.459499,6.5346 2.494669,-7.5281 a 1.0937826,1.0937826 0 0 1 1.744062,-0.4858 l 6.004868,5.166 0.353228,-6.1815 a 1.0937826,1.0937826 0 0 1 1.6116,-0.8831 l 5.452952,2.9804 -1.214221,-7.83717 a 1.0937826,1.0937826 0 0 1 1.346681,-1.23632 l 7.704781,1.87656 -3.201127,-7.24117 a 1.0937826,1.0937826 0 0 1 0.97137,-1.54537 l 7.903469,-0.17663 -4.945189,-6.15939 a 1.0937826,1.0937826 0 0 1 0.551922,-1.74406 l 7.572317,-2.20768 -6.33602,-4.65819 a 1.0937826,1.0937826 0 0 1 0.06618,-1.81029 l 6.77756,-4.10628 -5.80618,-2.27389 a 1.0937826,1.0937826 0 0 1 -0.353232,-1.8103 l 4.525732,-4.2608 -7.815165,-1.28046 a 1.0937826,1.0937826 0 0 1 -0.750612,-1.65574 l 4.172541,-6.73341 -7.88139,0.77269 a 1.0937826,1.0937826 0 0 1 -1.14799,-1.39084 l 2.273903,-7.59438 -7.395703,2.80373 a 1.0937826,1.0937826 0 0 1 -1.501217,-1.05967 l 0.242844,-7.8814 -6.40225,4.61403 a 1.0937826,1.0937826 0 0 1 -1.699908,-0.64022 l -1.766137,-7.48401 -4.128348,5.80618 a 1.0937826,1.0937826 0 0 1 -1.898598,-0.24285 l -2.5609,-6.62301 z"
       id="path3843"
       inkscape:connector-curvature="0" />
    <path
       sodipodi:type="arc"
       style="fill:url(#radialGradient3854);fill-opacity:1;fill-rule:evenodd;stroke:none"
       id="path3022"
       sodipodi:cx="82"
       sodipodi:cy="92.362183"
       sodipodi:rx="45"
       sodipodi:ry="45"
       d="m 127,92.362183 a 45,45 0 1 1 -90,0 45,45 0 1 1 90,0 z"
       transform="matrix(0.70645514,0,0,0.70645514,7.0316642,906.52418)" />
  </g>
</svg>
