<?xml version="1.0" encoding="utf-8"?>
<!-- Generator: Adobe Illustrator 16.0.0, SVG Export Plug-In . SVG Version: 6.00 Build 0)  -->
<!DOCTYPE svg PUBLIC "-//W3C//DTD SVG 1.1//EN" "http://www.w3.org/Graphics/SVG/1.1/DTD/svg11.dtd">
<svg version="1.1" id="Layer_1" xmlns="http://www.w3.org/2000/svg" xmlns:xlink="http://www.w3.org/1999/xlink" x="0px" y="0px"
	 width="68.03px" height="68.03px" viewBox="0 0 68.03 68.03" enable-background="new 0 0 68.03 68.03" xml:space="preserve">
<path fill-rule="evenodd" clip-rule="evenodd" fill="#9682BC" d="M61.975,30.023c0,12.661-8.395,23.354-19.918,26.831v-2.43
	c10.226-3.4,17.604-13.033,17.604-24.401c0-14.197-11.512-25.707-25.71-25.707c-14.197,0-25.708,11.509-25.708,25.707
	c0,11.368,7.378,21,17.602,24.401v2.43C14.319,53.377,5.925,42.684,5.925,30.023C5.925,14.547,18.472,2,33.95,2
	C49.428,2,61.975,14.547,61.975,30.023z M33.95,9.28c-11.369,0-20.587,9.217-20.587,20.584c0,9.299,6.167,17.157,14.632,19.711
	v-1.787c-7.512-2.496-12.931-9.576-12.931-17.924c0-10.429,8.456-18.884,18.885-18.884c10.433,0,18.886,8.455,18.886,18.884
	c0,8.348-5.42,15.428-12.932,17.924v1.787c8.467-2.555,14.632-10.412,14.632-19.711C54.536,18.497,45.32,9.28,33.95,9.28z
	 M33.95,16.729c-7.166,0-12.976,5.805-12.976,12.973c0,5.862,3.887,10.813,9.223,12.424V41c-4.734-1.572-8.149-6.035-8.149-11.297
	c0-6.571,5.33-11.903,11.902-11.903c6.574,0,11.904,5.332,11.904,11.903c0,5.262-3.415,9.725-8.149,11.297v1.127
	c5.335-1.611,9.22-6.562,9.22-12.424C46.925,22.535,41.118,16.729,33.95,16.729z"/>
<path fill="#581F60" d="M38.731,31.578c0,2.589-2.038,4.696-4.581,4.768c-0.045,0-0.09,0.002-0.135,0.002
	c-2.604,0-4.717-2.136-4.717-4.77c0-2.635,2.112-4.771,4.717-4.771c0.045,0,0.09,0.001,0.135,0.002
	C36.693,26.881,38.731,28.989,38.731,31.578z"/>
<rect x="31.275" y="38.348" fill="#581F60" width="5.187" height="28.444"/>
</svg>
